<svg width="19" height="19" viewBox="0 0 19 19" fill="none" xmlns="http://www.w3.org/2000/svg">
<path d="M10.8961 9.47847L18.7716 1.62403C18.9272 1.44278 19.0085 1.20963 18.9993 0.971182C18.9901 0.732729 18.8909 0.506534 18.7218 0.337796C18.5526 0.169059 18.3258 0.070208 18.0867 0.0609976C17.8476 0.0517872 17.6138 0.132896 17.4321 0.288115L9.55657 8.14255L1.68107 0.27864C1.50218 0.10023 1.25955 0 1.00657 0C0.75358 0 0.510955 0.10023 0.332066 0.27864C0.153178 0.45705 0.0526792 0.699026 0.0526792 0.951336C0.0526792 1.20365 0.153178 1.44562 0.332066 1.62403L8.21707 9.47847L0.332066 17.3329C0.232619 17.4178 0.151849 17.5224 0.0948272 17.6399C0.0378051 17.7575 0.00576145 17.8855 0.000707932 18.016C-0.00434559 18.1465 0.0176996 18.2766 0.0654604 18.3982C0.113221 18.5197 0.185667 18.6302 0.278249 18.7225C0.370831 18.8148 0.481551 18.8871 0.603459 18.9347C0.725368 18.9823 0.855834 19.0043 0.986667 18.9993C1.1175 18.9943 1.24588 18.9623 1.36374 18.9054C1.4816 18.8486 1.5864 18.768 1.67157 18.6688L9.55657 10.8144L17.4321 18.6688C17.6138 18.824 17.8476 18.9051 18.0867 18.8959C18.3258 18.8867 18.5526 18.7879 18.7218 18.6191C18.8909 18.4504 18.9901 18.2242 18.9993 17.9858C19.0085 17.7473 18.9272 17.5142 18.7716 17.3329L10.8961 9.47847Z" fill="white"/>
</svg>
