<svg width="14" height="8" viewBox="0 0 14 8" fill="none" xmlns="http://www.w3.org/2000/svg">
<path fill-rule="evenodd" clip-rule="evenodd" d="M12.8546 1.14506C12.9011 1.19151 12.9381 1.24668 12.9633 1.30743C12.9885 1.36817 13.0015 1.4333 13.0015 1.49906C13.0015 1.56483 12.9885 1.62995 12.9633 1.6907C12.9381 1.75144 12.9011 1.80662 12.8546 1.85306L6.85457 7.85306C6.80813 7.89963 6.75295 7.93657 6.69221 7.96178C6.63146 7.98698 6.56634 7.99996 6.50057 7.99996C6.4348 7.99996 6.36968 7.98698 6.30894 7.96178C6.24819 7.93657 6.19302 7.89963 6.14657 7.85306L0.146571 1.85306C0.0526849 1.75918 -5.99984e-05 1.63184 -6.00158e-05 1.49906C-6.00332e-05 1.36629 0.0526848 1.23895 0.146571 1.14506C0.240458 1.05118 0.367796 0.998432 0.500571 0.998432C0.633347 0.998432 0.760685 1.05118 0.854571 1.14506L6.50057 6.79206L12.1466 1.14506C12.193 1.0985 12.2482 1.06156 12.3089 1.03635C12.3697 1.01114 12.4348 0.998169 12.5006 0.998169C12.5663 0.998169 12.6315 1.01114 12.6922 1.03635C12.7529 1.06156 12.8081 1.0985 12.8546 1.14506Z" fill="#FD383E"/>
</svg>
